# xmcd
#
# Track frame offsets:
#	22867
#	29692
#	47625
#	69005
#	87047
#	109292
#	126435
#	145565
#	164160
#	185882
#	189912
#	205087
#	230425
#
# Disc length: 3310 seconds
# Revision: 0
# Processed by: cddbd v1.5.2PL0 Copyright (c) Steve Scherf et al.
# Submitted via: dBpowerAMP V12.0
#
DISCID=bc0bbe0d
DTITLE=Darkane - Demonic Art
DYEAR=2009
DGENRE=Metal
TTITLE0=Variations of an Eye Crush
TTITLE1=Leaving Existence
TTITLE2=Demonic Art
TTITLE3=Absolution
TTITLE4=Execution 44
TTITLE5=Impetious Constant Chaos
TTITLE6=Demigod
TTITLE7=Soul Survivor
TTITLE8=The Killing of I
TTITLE9=Wrong Grave
TTITLE10=Still in Progress
TTITLE11=Wrath Connection
TTITLE12=Reborn in Greed
EXTD=
EXTT0=
EXTT1=
EXTT2=
EXTT3=
EXTT4=
EXTT5=
EXTT6=
EXTT7=
EXTT8=
EXTT9=
EXTT10=
EXTT11=
EXTT12=
PLAYORDER=
